<svg style="display: none;"><symbol viewBox="0 0 24 24" id="shape-arrow-right"><path d="M8.122 24l-4.122-4 8-8-8-8 4.122-4 11.878 12z"/></symbol><symbol viewBox="0 0 56.680001 56.68" id="shape-social-facebook"> <metadata id="social-facebook-metadata46"> <rdf:RDF> <cc:Work rdf:about=""> <dc:format>image/svg+xml</dc:format> <dc:type rdf:resource="http://purl.org/dc/dcmitype/StillImage"/> <dc:title/> </cc:Work> </rdf:RDF> </metadata>  <path d="M 28.34,3 A 25.32,25.32 0 1 1 3,28.34 25.35,25.35 0 0 1 28.34,3 m 0,-3 A 28.34,28.34 0 1 0 56.68,28.34 28.34,28.34 0 0 0 28.34,0 Z" id="social-facebook-path2"/> <polygon points="21.71,23.67 34.32,23.67 33.42,29.07 21.71,29.07 " id="social-facebook-polygon12"/> <path d="m 24.44,20.11 v 21.57 h 5.38 V 21 a 0.81,0.81 0 0 1 0.9,-0.9 h 3.6 v -5.4 h -4.15 c -5.87,0 -5.73,4.74 -5.73,5.44 z" id="social-facebook-path14"/> </symbol><symbol viewBox="0 0 56.680001 56.68" id="shape-social-instagram"> <metadata id="social-instagram-metadata46"> <rdf:RDF> <cc:Work rdf:about=""> <dc:format>image/svg+xml</dc:format> <dc:type rdf:resource="http://purl.org/dc/dcmitype/StillImage"/> <dc:title/> </cc:Work> </rdf:RDF> </metadata>  <path d="M 28.35,3.0000018 A 25.32,25.32 0 1 1 3.03,28.320002 25.34,25.34 0 0 1 28.35,3.0000018 M 28.35,1.7642908e-6 A 28.34,28.34 0 1 0 56.68,28.340002 28.34,28.34 0 0 0 28.35,1.7642908e-6 Z" id="social-instagram-path4"/> <path d="M 33.98,15.330002 H 21.83 a 6.86,6.86 0 0 0 -6.77,6.91 v 11.86 a 6.86,6.86 0 0 0 6.77,6.92 h 12.15 a 6.87,6.87 0 0 0 6.77,-6.92 v -11.86 a 6.86,6.86 0 0 0 -6.77,-6.91 z m 4.47,18.6 a 4.75,4.75 0 0 1 -4.69,4.79 H 22.04 a 4.75,4.75 0 0 1 -4.68,-4.79 v -11.52 a 4.75,4.75 0 0 1 4.68,-4.78 h 11.72 a 4.75,4.75 0 0 1 4.69,4.79 z" id="social-instagram-path6"/> <path d="m 27.9,21.580002 a 6.6,6.6 0 1 0 6.46,6.6 6.53,6.53 0 0 0 -6.46,-6.6 z m 0,10.85 a 4.26,4.26 0 1 1 4.17,-4.25 4.21,4.21 0 0 1 -4.17,4.25 z" id="social-instagram-path8"/> <path d="m 36.17,21.220002 a 1.46,1.46 0 1 1 -1.46,-1.49 1.47,1.47 0 0 1 1.46,1.49 z" id="social-instagram-path10"/> </symbol><symbol viewBox="0 0 56.680001 56.68" id="shape-social-linkedin"> <metadata id="social-linkedin-metadata46"> <rdf:RDF> <cc:Work rdf:about=""> <dc:format>image/svg+xml</dc:format> <dc:type rdf:resource="http://purl.org/dc/dcmitype/StillImage"/> <dc:title/> </cc:Work> </rdf:RDF> </metadata>  <path d="M 28.3,3.0000282 A 25.32,25.32 0 1 1 2.99,28.320028 25.35,25.35 0 0 1 28.3,3.0000282 M 28.3,2.8228666e-5 A 28.34,28.34 0 1 0 56.68,28.340028 28.34,28.34 0 0 0 28.3,2.8228666e-5 Z" id="social-linkedin-path18"/> <rect x="16.349998" y="22.590029" width="5.27" height="16.690001" id="social-linkedin-rect23"/> <path d="m 36.01,22.430028 c -3,0 -4.91,1.64 -5.26,2.78 v -2.62 h -5.92 c 0.08,1.39 0,16.69 0,16.69 h 5.92 v -9 a 3.62,3.62 0 0 1 0.13,-1.36 3,3 0 0 1 2.85,-2 c 2,0 3,1.55 3,3.81 v 8.63 h 6 v -9.36 c -0.05,-5.17 -2.98,-7.57 -6.72,-7.57 z" id="social-linkedin-path25"/> <path d="m 18.88,14.720028 a 2.91,2.91 0 1 0 -0.07,5.79 v 0 a 2.91,2.91 0 1 0 0,-5.79 z" id="social-linkedin-path27"/> </symbol><symbol viewBox="0 0 50 50" id="shape-social-mail"><g fill="none" fill-rule="evenodd" id="social-mail-Page-1" stroke="none" stroke-width="1"><g fill="#000000" id="social-mail-Mail"><path d="M25,0 C11.1928806,0 0,11.1928806 0,25 C0,38.8071194 11.1928806,50 25,50 C38.8071194,50 50,38.8071194 50,25 C50,11.1928806 38.8071194,0 25,0 Z M25,3 C12.8497349,3 3,12.8497349 3,25 C3,37.1502651 12.8497349,47 25,47 C37.1502651,47 47,37.1502651 47,25 C47,12.8497349 37.1502651,3 25,3 Z M37,31.9646738 L37,17 L28.262875,25.4642914 L37,31.9646738 Z M13,31.9646738 L21.7369375,25.4633812 L13,17 L13,31.9646738 Z M22.9140156,26.604743 L13,33 L37,33 L27.08575,26.604743 L25,28.625083 L22.9140156,26.604743 Z M13.72,17 L25,26.0581312 L36.28,17 L13.72,17 Z M13.72,17" id="social-mail-Oval-1"/></g></g></symbol><symbol viewBox="0 0 56.680001 56.68" id="shape-social-twitter"> <metadata id="social-twitter-metadata46"> <rdf:RDF> <cc:Work rdf:about=""> <dc:format>image/svg+xml</dc:format> <dc:type rdf:resource="http://purl.org/dc/dcmitype/StillImage"/> <dc:title/> </cc:Work> </rdf:RDF> </metadata>  <path d="M 28.34,3 A 25.32,25.32 0 1 1 3.02,28.32 25.35,25.35 0 0 1 28.34,3 m 0,-3 A 28.34,28.34 0 1 0 56.68,28.34 28.34,28.34 0 0 0 28.34,0 Z" id="social-twitter-path20"/> <path id="social-twitter-Twitter" d="m 43.6,16.38 a 12.19,12.19 0 0 1 -3.89,1.52 6,6 0 0 0 -4.46,-2 6.2,6.2 0 0 0 -6.12,6.27 6.74,6.74 0 0 0 0.16,1.43 17.23,17.23 0 0 1 -12.61,-6.56 6.47,6.47 0 0 0 -0.83,3.16 6.31,6.31 0 0 0 2.73,5.22 6.13,6.13 0 0 1 -2.78,-0.78 v 0.07 a 6.23,6.23 0 0 0 4.91,6.15 5.69,5.69 0 0 1 -1.61,0.22 5.47,5.47 0 0 1 -1.15,-0.11 6.15,6.15 0 0 0 5.71,4.36 12.08,12.08 0 0 1 -7.54,2.67 13.83,13.83 0 0 1 -1.46,-0.08 17,17 0 0 0 9.37,2.81 c 11.26,0 17.41,-9.55 17.41,-17.84 0,-0.28 0,-0.55 0,-0.82 a 12.39,12.39 0 0 0 3,-3.24 12.12,12.12 0 0 1 -3.51,1 6.32,6.32 0 0 0 2.67,-3.45 z"/> </symbol><symbol viewBox="0 0 56.680001 56.68" id="shape-social-youtube"> <metadata id="social-youtube-metadata46"> <rdf:RDF> <cc:Work rdf:about=""> <dc:format>image/svg+xml</dc:format> <dc:type rdf:resource="http://purl.org/dc/dcmitype/StillImage"/> <dc:title/> </cc:Work> </rdf:RDF> </metadata>  <path d="M 28.34,3 A 25.32,25.32 0 1 1 3.02,28.32 25.35,25.35 0 0 1 28.34,3 m 0,-3 A 28.34,28.34 0 1 0 56.68,28.34 28.34,28.34 0 0 0 28.34,0 Z" id="social-youtube-path16"/> <path d="m 30.97,32.24 a 1.16,1.16 0 0 0 -0.8,0.39 V 38 a 1.14,1.14 0 0 0 0.8,0.4 c 0.46,0 0.7,-0.4 0.7,-1.19 v -3.77 c 0,-0.79 -0.24,-1.2 -0.7,-1.2 z m 0,0" id="social-youtube-path29"/> <path d="m 36.77,32.24 c -0.54,0 -0.8,0.41 -0.8,1.22 v 0.82 h 1.6 v -0.82 c 0,-0.81 -0.27,-1.22 -0.8,-1.22 z m 0,0" id="social-youtube-path31"/> <path d="m 40.09,26.18 a 3.8,3.8 0 0 0 -2.65,-1.11 c -3.69,-0.26 -9.23,-0.26 -9.23,-0.26 v 0 c 0,0 -5.54,0 -9.24,0.26 a 3.81,3.81 0 0 0 -2.64,1.11 5.7,5.7 0 0 0 -1.05,2.61 39.92,39.92 0 0 0 -0.31,4.21 v 2 a 40.23,40.23 0 0 0 0.26,4.25 5.68,5.68 0 0 0 1.05,2.6 4.52,4.52 0 0 0 2.91,1.12 c 2.11,0.2 9,0.26 9,0.26 0,0 5.54,0 9.23,-0.27 a 3.8,3.8 0 0 0 2.65,-1.11 5.68,5.68 0 0 0 1.05,-2.6 A 40.23,40.23 0 0 0 41.38,35 V 33 A 39.92,39.92 0 0 0 41.12,28.76 5.7,5.7 0 0 0 40.07,26.15 Z M 20.83,39.73 H 19.04 V 29.56 h -1.88 v -1.67 h 5.58 v 1.67 h -1.91 z m 6.3,0 h -1.6 v -1 a 2.56,2.56 0 0 1 -1.82,1.09 1,1 0 0 1 -1,-0.66 4.79,4.79 0 0 1 -0.14,-1.31 v -7 h 1.6 v 6.49 c 0,0.37 0,0.57 0,0.62 0.05,0.25 0.17,0.38 0.38,0.38 0.21,0 0.66,-0.25 1,-0.75 v -6.74 h 1.6 z m 6.09,-2.65 a 6.85,6.85 0 0 1 -0.17,1.78 1.26,1.26 0 0 1 -1.27,1 2.19,2.19 0 0 1 -1.66,-1 v 0.86 h -1.6 V 27.89 h 1.6 v 3.87 a 2.17,2.17 0 0 1 1.66,-1 1.26,1.26 0 0 1 1.27,1 6.5,6.5 0 0 1 0.17,1.77 z m 6,-1.47 h -3.25 v 1.56 c 0,0.82 0.26,1.23 0.81,1.23 a 0.69,0.69 0 0 0 0.72,-0.65 10.77,10.77 0 0 0 0,-1.08 h 1.63 v 0.24 a 9.64,9.64 0 0 1 0,1 2.24,2.24 0 0 1 -0.37,1 2.22,2.22 0 0 1 -1.94,1 A 2.3,2.3 0 0 1 34.89,39 3.4,3.4 0 0 1 34.37,36.93 v -3.09 a 3.45,3.45 0 0 1 0.5,-2.08 2.28,2.28 0 0 1 1.91,-0.9 2.23,2.23 0 0 1 1.89,0.9 3.45,3.45 0 0 1 0.5,2.08 z m 0,0" id="social-youtube-path33"/> <path d="m 23.97,23.93 v -4.84 l 2.16,-7.12 h -1.82 l -1.22,4.7 -1.27,-4.7 h -1.85 l 1.15,3.33 a 30.05,30.05 0 0 1 1.1,3.79 v 4.84 z m 0,0" id="social-youtube-path35"/> <path d="m 28.19,24.05 a 2.18,2.18 0 0 0 1.88,-0.91 3.47,3.47 0 0 0 0.51,-2.1 v -3.12 a 3.46,3.46 0 0 0 -0.51,-2.09 2.38,2.38 0 0 0 -3.76,0 3.39,3.39 0 0 0 -0.51,2.09 V 21 a 3.4,3.4 0 0 0 0.51,2.1 2.18,2.18 0 0 0 1.88,0.91 z M 27.42,17.6 c 0,-0.83 0.25,-1.24 0.77,-1.24 0.52,0 0.77,0.42 0.77,1.24 v 3.75 c 0,0.82 -0.25,1.23 -0.77,1.23 -0.52,0 -0.77,-0.41 -0.77,-1.23 z m 0,0" id="social-youtube-path37"/> <path d="M 36.47,23.93 V 15 h -1.62 v 6.81 c -0.35,0.5 -0.69,0.76 -1,0.76 -0.31,0 -0.34,-0.14 -0.38,-0.38 a 3.77,3.77 0 0 1 0,-0.63 V 15 h -1.61 v 7.05 a 4.5,4.5 0 0 0 0.14,1.32 1,1 0 0 0 1,0.66 2.61,2.61 0 0 0 1.84,-1.09 v 1 z m 0,0" id="social-youtube-path39"/> </symbol></svg>