<?xml version="1.0" encoding="UTF-8" standalone="no"?>
<svg
   xmlns:dc="http://purl.org/dc/elements/1.1/"
   xmlns:cc="http://creativecommons.org/ns#"
   xmlns:rdf="http://www.w3.org/1999/02/22-rdf-syntax-ns#"
   xmlns:svg="http://www.w3.org/2000/svg"
   xmlns="http://www.w3.org/2000/svg"
   id="Camada_1"
   data-name="Camada 1"
   viewBox="0 0 56.680001 56.68"
   version="1.1"
   width="56.68"
   height="56.68">
  <metadata
     id="metadata46">
    <rdf:RDF>
      <cc:Work
         rdf:about="">
        <dc:format>image/svg+xml</dc:format>
        <dc:type
           rdf:resource="http://purl.org/dc/dcmitype/StillImage" />
        <dc:title></dc:title>
      </cc:Work>
    </rdf:RDF>
  </metadata>
  <defs
     id="defs44" />
  <path
     d="M 28.34,3 A 25.32,25.32 0 1 1 3.02,28.32 25.35,25.35 0 0 1 28.34,3 m 0,-3 A 28.34,28.34 0 1 0 56.68,28.34 28.34,28.34 0 0 0 28.34,0 Z"
     id="path20" />
  <path
     id="Twitter"
     d="m 43.6,16.38 a 12.19,12.19 0 0 1 -3.89,1.52 6,6 0 0 0 -4.46,-2 6.2,6.2 0 0 0 -6.12,6.27 6.74,6.74 0 0 0 0.16,1.43 17.23,17.23 0 0 1 -12.61,-6.56 6.47,6.47 0 0 0 -0.83,3.16 6.31,6.31 0 0 0 2.73,5.22 6.13,6.13 0 0 1 -2.78,-0.78 v 0.07 a 6.23,6.23 0 0 0 4.91,6.15 5.69,5.69 0 0 1 -1.61,0.22 5.47,5.47 0 0 1 -1.15,-0.11 6.15,6.15 0 0 0 5.71,4.36 12.08,12.08 0 0 1 -7.54,2.67 13.83,13.83 0 0 1 -1.46,-0.08 17,17 0 0 0 9.37,2.81 c 11.26,0 17.41,-9.55 17.41,-17.84 0,-0.28 0,-0.55 0,-0.82 a 12.39,12.39 0 0 0 3,-3.24 12.12,12.12 0 0 1 -3.51,1 6.32,6.32 0 0 0 2.67,-3.45 z" />
</svg>
