<?xml version="1.0" encoding="UTF-8" standalone="no"?>
<svg
   xmlns:dc="http://purl.org/dc/elements/1.1/"
   xmlns:cc="http://creativecommons.org/ns#"
   xmlns:rdf="http://www.w3.org/1999/02/22-rdf-syntax-ns#"
   xmlns:svg="http://www.w3.org/2000/svg"
   xmlns="http://www.w3.org/2000/svg"
   id="Camada_1"
   data-name="Camada 1"
   viewBox="0 0 56.680001 56.68"
   version="1.1"
   width="56.68"
   height="56.68">
  <metadata
     id="metadata46">
    <rdf:RDF>
      <cc:Work
         rdf:about="">
        <dc:format>image/svg+xml</dc:format>
        <dc:type
           rdf:resource="http://purl.org/dc/dcmitype/StillImage" />
        <dc:title></dc:title>
      </cc:Work>
    </rdf:RDF>
  </metadata>
  <defs
     id="defs44" />
  <path
     d="M 28.34,3 A 25.32,25.32 0 1 1 3.02,28.32 25.35,25.35 0 0 1 28.34,3 m 0,-3 A 28.34,28.34 0 1 0 56.68,28.34 28.34,28.34 0 0 0 28.34,0 Z"
     id="path16" />
  <path
     d="m 30.97,32.24 a 1.16,1.16 0 0 0 -0.8,0.39 V 38 a 1.14,1.14 0 0 0 0.8,0.4 c 0.46,0 0.7,-0.4 0.7,-1.19 v -3.77 c 0,-0.79 -0.24,-1.2 -0.7,-1.2 z m 0,0"
     id="path29" />
  <path
     d="m 36.77,32.24 c -0.54,0 -0.8,0.41 -0.8,1.22 v 0.82 h 1.6 v -0.82 c 0,-0.81 -0.27,-1.22 -0.8,-1.22 z m 0,0"
     id="path31" />
  <path
     d="m 40.09,26.18 a 3.8,3.8 0 0 0 -2.65,-1.11 c -3.69,-0.26 -9.23,-0.26 -9.23,-0.26 v 0 c 0,0 -5.54,0 -9.24,0.26 a 3.81,3.81 0 0 0 -2.64,1.11 5.7,5.7 0 0 0 -1.05,2.61 39.92,39.92 0 0 0 -0.31,4.21 v 2 a 40.23,40.23 0 0 0 0.26,4.25 5.68,5.68 0 0 0 1.05,2.6 4.52,4.52 0 0 0 2.91,1.12 c 2.11,0.2 9,0.26 9,0.26 0,0 5.54,0 9.23,-0.27 a 3.8,3.8 0 0 0 2.65,-1.11 5.68,5.68 0 0 0 1.05,-2.6 A 40.23,40.23 0 0 0 41.38,35 V 33 A 39.92,39.92 0 0 0 41.12,28.76 5.7,5.7 0 0 0 40.07,26.15 Z M 20.83,39.73 H 19.04 V 29.56 h -1.88 v -1.67 h 5.58 v 1.67 h -1.91 z m 6.3,0 h -1.6 v -1 a 2.56,2.56 0 0 1 -1.82,1.09 1,1 0 0 1 -1,-0.66 4.79,4.79 0 0 1 -0.14,-1.31 v -7 h 1.6 v 6.49 c 0,0.37 0,0.57 0,0.62 0.05,0.25 0.17,0.38 0.38,0.38 0.21,0 0.66,-0.25 1,-0.75 v -6.74 h 1.6 z m 6.09,-2.65 a 6.85,6.85 0 0 1 -0.17,1.78 1.26,1.26 0 0 1 -1.27,1 2.19,2.19 0 0 1 -1.66,-1 v 0.86 h -1.6 V 27.89 h 1.6 v 3.87 a 2.17,2.17 0 0 1 1.66,-1 1.26,1.26 0 0 1 1.27,1 6.5,6.5 0 0 1 0.17,1.77 z m 6,-1.47 h -3.25 v 1.56 c 0,0.82 0.26,1.23 0.81,1.23 a 0.69,0.69 0 0 0 0.72,-0.65 10.77,10.77 0 0 0 0,-1.08 h 1.63 v 0.24 a 9.64,9.64 0 0 1 0,1 2.24,2.24 0 0 1 -0.37,1 2.22,2.22 0 0 1 -1.94,1 A 2.3,2.3 0 0 1 34.89,39 3.4,3.4 0 0 1 34.37,36.93 v -3.09 a 3.45,3.45 0 0 1 0.5,-2.08 2.28,2.28 0 0 1 1.91,-0.9 2.23,2.23 0 0 1 1.89,0.9 3.45,3.45 0 0 1 0.5,2.08 z m 0,0"
     id="path33" />
  <path
     d="m 23.97,23.93 v -4.84 l 2.16,-7.12 h -1.82 l -1.22,4.7 -1.27,-4.7 h -1.85 l 1.15,3.33 a 30.05,30.05 0 0 1 1.1,3.79 v 4.84 z m 0,0"
     id="path35" />
  <path
     d="m 28.19,24.05 a 2.18,2.18 0 0 0 1.88,-0.91 3.47,3.47 0 0 0 0.51,-2.1 v -3.12 a 3.46,3.46 0 0 0 -0.51,-2.09 2.38,2.38 0 0 0 -3.76,0 3.39,3.39 0 0 0 -0.51,2.09 V 21 a 3.4,3.4 0 0 0 0.51,2.1 2.18,2.18 0 0 0 1.88,0.91 z M 27.42,17.6 c 0,-0.83 0.25,-1.24 0.77,-1.24 0.52,0 0.77,0.42 0.77,1.24 v 3.75 c 0,0.82 -0.25,1.23 -0.77,1.23 -0.52,0 -0.77,-0.41 -0.77,-1.23 z m 0,0"
     id="path37" />
  <path
     d="M 36.47,23.93 V 15 h -1.62 v 6.81 c -0.35,0.5 -0.69,0.76 -1,0.76 -0.31,0 -0.34,-0.14 -0.38,-0.38 a 3.77,3.77 0 0 1 0,-0.63 V 15 h -1.61 v 7.05 a 4.5,4.5 0 0 0 0.14,1.32 1,1 0 0 0 1,0.66 2.61,2.61 0 0 0 1.84,-1.09 v 1 z m 0,0"
     id="path39" />
</svg>
