<?xml version="1.0" encoding="UTF-8" standalone="no"?>
<svg
   xmlns:dc="http://purl.org/dc/elements/1.1/"
   xmlns:cc="http://creativecommons.org/ns#"
   xmlns:rdf="http://www.w3.org/1999/02/22-rdf-syntax-ns#"
   xmlns:svg="http://www.w3.org/2000/svg"
   xmlns="http://www.w3.org/2000/svg"
   id="Camada_1"
   data-name="Camada 1"
   viewBox="0 0 56.680001 56.68"
   version="1.1"
   width="56.68"
   height="56.68">
  <metadata
     id="metadata46">
    <rdf:RDF>
      <cc:Work
         rdf:about="">
        <dc:format>image/svg+xml</dc:format>
        <dc:type
           rdf:resource="http://purl.org/dc/dcmitype/StillImage" />
        <dc:title></dc:title>
      </cc:Work>
    </rdf:RDF>
  </metadata>
  <defs
     id="defs44" />
  <path
     d="M 28.35,3.0000018 A 25.32,25.32 0 1 1 3.03,28.320002 25.34,25.34 0 0 1 28.35,3.0000018 M 28.35,1.7642908e-6 A 28.34,28.34 0 1 0 56.68,28.340002 28.34,28.34 0 0 0 28.35,1.7642908e-6 Z"
     id="path4" />
  <path
     d="M 33.98,15.330002 H 21.83 a 6.86,6.86 0 0 0 -6.77,6.91 v 11.86 a 6.86,6.86 0 0 0 6.77,6.92 h 12.15 a 6.87,6.87 0 0 0 6.77,-6.92 v -11.86 a 6.86,6.86 0 0 0 -6.77,-6.91 z m 4.47,18.6 a 4.75,4.75 0 0 1 -4.69,4.79 H 22.04 a 4.75,4.75 0 0 1 -4.68,-4.79 v -11.52 a 4.75,4.75 0 0 1 4.68,-4.78 h 11.72 a 4.75,4.75 0 0 1 4.69,4.79 z"
     id="path6" />
  <path
     d="m 27.9,21.580002 a 6.6,6.6 0 1 0 6.46,6.6 6.53,6.53 0 0 0 -6.46,-6.6 z m 0,10.85 a 4.26,4.26 0 1 1 4.17,-4.25 4.21,4.21 0 0 1 -4.17,4.25 z"
     id="path8" />
  <path
     d="m 36.17,21.220002 a 1.46,1.46 0 1 1 -1.46,-1.49 1.47,1.47 0 0 1 1.46,1.49 z"
     id="path10" />
</svg>
