<?xml version="1.0" encoding="UTF-8" standalone="no"?>
<svg
   xmlns:dc="http://purl.org/dc/elements/1.1/"
   xmlns:cc="http://creativecommons.org/ns#"
   xmlns:rdf="http://www.w3.org/1999/02/22-rdf-syntax-ns#"
   xmlns:svg="http://www.w3.org/2000/svg"
   xmlns="http://www.w3.org/2000/svg"
   id="Camada_1"
   data-name="Camada 1"
   viewBox="0 0 56.680001 56.68"
   version="1.1"
   width="56.68"
   height="56.68">
  <metadata
     id="metadata46">
    <rdf:RDF>
      <cc:Work
         rdf:about="">
        <dc:format>image/svg+xml</dc:format>
        <dc:type
           rdf:resource="http://purl.org/dc/dcmitype/StillImage" />
        <dc:title></dc:title>
      </cc:Work>
    </rdf:RDF>
  </metadata>
  <defs
     id="defs44" />
  <path
     d="M 28.3,3.0000282 A 25.32,25.32 0 1 1 2.99,28.320028 25.35,25.35 0 0 1 28.3,3.0000282 M 28.3,2.8228666e-5 A 28.34,28.34 0 1 0 56.68,28.340028 28.34,28.34 0 0 0 28.3,2.8228666e-5 Z"
     id="path18" />
  <rect
     x="16.349998"
     y="22.590029"
     width="5.27"
     height="16.690001"
     id="rect23" />
  <path
     d="m 36.01,22.430028 c -3,0 -4.91,1.64 -5.26,2.78 v -2.62 h -5.92 c 0.08,1.39 0,16.69 0,16.69 h 5.92 v -9 a 3.62,3.62 0 0 1 0.13,-1.36 3,3 0 0 1 2.85,-2 c 2,0 3,1.55 3,3.81 v 8.63 h 6 v -9.36 c -0.05,-5.17 -2.98,-7.57 -6.72,-7.57 z"
     id="path25" />
  <path
     d="m 18.88,14.720028 a 2.91,2.91 0 1 0 -0.07,5.79 v 0 a 2.91,2.91 0 1 0 0,-5.79 z"
     id="path27" />
</svg>
